<svg xmlns="http://www.w3.org/2000/svg" viewBox="0 0 740 518" width="740" height="518" font-family="'JetBrains Mono','Fira Code','Cascadia Code','Symbols Nerd Font',monospace">
  <defs>
    <style>
      .bg     { fill: #1e1e2e; }
      .border { fill: none; stroke: #313244; stroke-width: 1; }
      .surface{ fill: #181825; stroke: #313244; stroke-width: 1; }
      .title  { fill: #7f849c; font-size: 11px; }
      .dot-r  { fill: #f38ba8;   }
      .dot-y  { fill: #f9e2af;}
      .dot-g  { fill: #a6e3a1; }
      .text   { fill: #cdd6f4;   font-size: 12px; }
      .muted  { fill: #7f849c;  font-size: 12px; }
      .accent { fill: #89b4fa; font-size: 12px; font-weight: 600; }
      .green  { fill: #a6e3a1;  font-size: 12px; }
      .yellow { fill: #f9e2af; font-size: 12px; }
      .red    { fill: #f38ba8;    font-size: 12px; }
      .head   { fill: #89b4fa; font-size: 12px; font-weight: 700; }
      .small  { fill: #7f849c;  font-size: 10px; }
      .logo   { font-size: 11px; line-height: 1; }
      .glyph  { font-size: 13px; }
      .cursor { fill: #cdd6f4; animation: blink 1.05s steps(2,start) infinite; }
      @keyframes blink { to { visibility: hidden; } }
    </style>
  </defs>

  <rect class="bg" x="0" y="0" width="740" height="518" rx="10"/>
  <rect class="border" x="0.5" y="0.5" width="739" height="517" rx="10"/>

  <line x1="0" y1="30" x2="740" y2="30" stroke="#313244" stroke-width="1"/>
  <circle class="dot-r" cx="18" cy="15" r="5"/>
  <circle class="dot-y" cx="34" cy="15" r="5"/>
  <circle class="dot-g" cx="50" cy="15" r="5"/>
  <text class="title" x="370.0" y="19" text-anchor="middle">inventory69@github — ~/profile</text>



  <g transform="translate(20 50)">
    <text class="logo" x="0" y="13" fill="#89b4fa" xml:space="preserve">       /\       </text>
    <text class="logo" x="0" y="26" fill="#89b4fa" xml:space="preserve">      /  \      </text>
    <text class="logo" x="0" y="39" fill="#89b4fa" xml:space="preserve">     /\   \     </text>
    <text class="logo" x="0" y="52" fill="#89b4fa" xml:space="preserve">    /      \    </text>
    <text class="logo" x="0" y="65" fill="#89b4fa" xml:space="preserve">   /   ,,   \   </text>
    <text class="logo" x="0" y="78" fill="#89b4fa" xml:space="preserve">  /   |  |   \  </text>
    <text class="logo" x="0" y="91" fill="#7f849c" xml:space="preserve"> / _-&#39;    `-_ \ </text>
    <text class="logo" x="0" y="104" fill="#7f849c" xml:space="preserve">/_-&#39;        `-_\</text>
  </g>

  <g transform="translate(150 50)">
    <text class="head" x="0" y="14">Your Name</text>
    <text class="muted" x="0" y="18">
      <tspan x="0" dy="14" xml:space="preserve">─────────</tspan>
    </text>
    <text class="text" x="0" y="50">Arch enjoyer • Open Source</text>
    <text class="accent" x="0" y="68">↗ <tspan class="muted" dx="2">yourwebsite.com</tspan></text>
    <text x="0" y="84">
        <tspan class="accent">GitHub</tspan>
    </text>
  </g>


  <rect class="surface" x="20" y="176" width="700" height="114" rx="6"/>
  <text class="small" x="32" y="190">┌─ system ─</text>
  <text class="glyph" x="32"  y="208" fill="#89b4fa">◆</text>
  <text class="accent" x="56"  y="208">OS</text>
  <text class="text"  x="170" y="208">Arch Linux</text>
  <text class="glyph" x="32"  y="226" fill="#cba6f7">▣</text>
  <text class="accent" x="56"  y="226">WM</text>
  <text class="text"  x="170" y="226">Hyprland</text>
  <text class="glyph" x="32"  y="244" fill="#a6e3a1">❯</text>
  <text class="accent" x="56"  y="244">Shell</text>
  <text class="text"  x="170" y="244">bash</text>
  <text class="glyph" x="32"  y="262" fill="#89b4fa">▶</text>
  <text class="accent" x="56"  y="262">Terminal</text>
  <text class="text"  x="170" y="262">Kitty</text>
  <text class="glyph" x="32"  y="280" fill="#f9e2af">✎</text>
  <text class="accent" x="56"  y="280">Editor</text>
  <text class="text"  x="170" y="280">Neovim</text>

  <rect class="surface" x="20" y="302" width="700" height="132" rx="6"/>
  <text class="small" x="32" y="316">┌─ ~/projects ─</text>
  <circle cx="38" cy="330" r="5" fill="#A97BFF"/>
  <text class="accent" x="50" y="334">simple-notes-sync</text>
  <text class="yellow" x="520" y="334">★ 109</text>
  <text class="muted"  x="570" y="334">Kotlin</text>
  <circle cx="38" cy="352" r="5" fill="#f1e05a"/>
  <text class="accent" x="50" y="356">simple-notes-desktop</text>
  <text class="yellow" x="520" y="356">★ 5</text>
  <text class="muted"  x="570" y="356">JavaScript</text>
  <circle cx="38" cy="374" r="5" fill="#3572A5"/>
  <text class="accent" x="50" y="378">terminal-widget-profile</text>
  <text class="yellow" x="520" y="378">★ 2</text>
  <text class="muted"  x="570" y="378">Python</text>
  <circle cx="38" cy="396" r="5" fill="#3572A5"/>
  <text class="accent" x="50" y="400">HazeBot</text>
  <text class="yellow" x="520" y="400">★ 2</text>
  <text class="muted"  x="570" y="400">Python</text>
  <circle cx="38" cy="418" r="5" fill="#A97BFF"/>
  <text class="accent" x="50" y="422">deltip</text>
  <text class="yellow" x="520" y="422">★ 0</text>
  <text class="muted"  x="570" y="422">Kotlin</text>

  <text class="text" x="20" y="460">
    <tspan class="muted" xml:space="preserve">  repos </tspan><tspan class="accent">14</tspan>
    <tspan class="muted" xml:space="preserve">    stars </tspan><tspan class="yellow">118</tspan>
    <tspan class="muted" xml:space="preserve">    followers </tspan><tspan class="green">10</tspan>
    <tspan class="muted" xml:space="preserve">    following </tspan><tspan class="purple" fill="#cba6f7">3</tspan>
  </text>


  <rect x="20" y="470" width="85" height="14" rx="3" fill="#45475a"/>
  <rect x="109" y="470" width="85" height="14" rx="3" fill="#f38ba8"/>
  <rect x="198" y="470" width="85" height="14" rx="3" fill="#a6e3a1"/>
  <rect x="287" y="470" width="85" height="14" rx="3" fill="#f9e2af"/>
  <rect x="376" y="470" width="85" height="14" rx="3" fill="#89b4fa"/>
  <rect x="465" y="470" width="85" height="14" rx="3" fill="#cba6f7"/>
  <rect x="554" y="470" width="85" height="14" rx="3" fill="#94e2d5"/>
  <rect x="643" y="470" width="85" height="14" rx="3" fill="#bac2de"/>

  <text x="20" y="508" font-size="12">
    <tspan fill="#a6e3a1">inventory69@github</tspan>
    <tspan fill="#7f849c" xml:space="preserve"> ~ </tspan>
    <tspan fill="#89b4fa">❯ </tspan>
    <tspan class="cursor">▋</tspan>
  </text>
</svg>